<?xml version="1.0" encoding="utf-8"?>
<svg version="1.1" id="Camada_1" xmlns="http://www.w3.org/2000/svg" xmlns:xlink="http://www.w3.org/1999/xlink" x="0px" y="0px"
	 viewBox="0 0 20 16.6" enable-background="new 0 0 20 16.6" xml:space="preserve">
<g>
	<path fill="#7C7B7A" d="M20,6.6l-1.7,1.1C17.9,3.4,14.3,0,10,0C6.7,0,3.7,1.9,2.4,4.9l1.2,0.5C4.7,2.9,7.2,1.3,10,1.3
		c3.6,0,6.6,2.8,7,6.3l-1.6-1l0,2.3l2.3,2l2.3-2L20,6.6z"/>
	<path fill-rule="evenodd" clip-rule="evenodd" fill="#7C7B7A" d="M16.3,11.4c-0.1,0.1-0.1,0.2-0.2,0.3c-1.3,2.2-3.6,3.6-6.1,3.6
		c-3.5,0-6.4-2.5-6.9-5.9l1.6,1l0-2.3l-2.3-2L0,8.2l0,2.3l1.7-1.1c0.5,4.1,4,7.2,8.2,7.2c3,0,5.8-1.6,7.2-4.2
		c0.1-0.1,0.1-0.3,0.2-0.4L16.3,11.4z"/>
</g>
</svg>
